<svg xmlns="http://www.w3.org/2000/svg" width="256" height="256" viewBox="0 0 128 128">
  <rect width="128" height="128" rx="16" ry="16" fill="#1a1a2e"/>
  <g transform="translate(-205, -55) scale(0.94, 0.94) translate(12, 8)">
    <path fill="#03D6C6" d="M251.289124,81.702896 C264.613525,100.000824 277.727936,118.008392 290.992310,136.221878 C280.018982,151.332596 269.127533,166.330032 258.236755,181.327942 C253.349365,188.058456 248.521347,194.833572 243.522781,201.480453 C242.630661,202.666763 241.062698,204.051788 239.758423,204.102585 C233.006744,204.365448 226.239365,204.224762 218.471497,204.224762 C235.209610,181.168808 251.388809,158.882751 267.781006,136.303314 C251.485611,113.863014 235.194580,91.428734 218.214676,68.045799 C226.185532,68.045799 233.212494,67.948753 240.230499,68.155647 C241.226227,68.184998 242.362061,69.551872 243.117691,70.540695 C245.844406,74.108932 248.436325,77.780182 251.289124,81.702896z"/>
    <path fill="#04D6C6" d="M317.593384,99.586136 C309.980133,110.050743 302.588257,120.228867 294.836792,130.902115 C291.253906,125.989685 287.846710,121.587730 284.813477,116.941643 C284.173431,115.961258 284.377075,113.727226 285.089355,112.682808 C289.199982,106.655266 293.492798,100.744240 297.946381,94.965210 C298.782013,93.880875 300.607910,93.041771 302.005798,92.997208 C308.460724,92.791389 314.925873,92.906357 322.319458,92.906357 C320.565277,95.395950 319.190002,97.347794 317.593384,99.586136z"/>
    <path fill="#07D7C7" d="M295.946533,143.215759 C304.223511,154.604660 312.296875,165.715042 320.969635,177.650330 C313.192749,177.650330 306.319366,177.766022 299.457367,177.538483 C298.289185,177.499771 296.895905,176.199097 296.074799,175.123886 C292.349579,170.245911 288.881927,165.170532 285.132050,160.312485 C283.530548,158.237717 283.563293,156.741592 285.218933,154.696976 C288.034119,151.220398 290.464752,147.434570 293.204529,143.892792 C293.675446,143.284027 294.878174,143.241394 295.946533,143.215759z"/>
  </g>
</svg>
