<svg xmlns="http://www.w3.org/2000/svg" width="24" height="24" viewBox="0 0 120 152">
  <path fill="currentColor" d="M41.29,21.7 C54.61,40 67.73,58.01 80.99,76.22 C70.02,91.33 59.13,106.33 48.24,121.33 C43.35,128.06 38.52,134.83 33.52,141.48 C32.63,142.67 31.06,144.05 29.76,144.1 C23.01,144.37 16.24,144.22 8.47,144.22 C25.21,121.17 41.39,98.88 57.78,76.3 C41.49,53.86 25.19,31.43 8.21,8.05 C16.19,8.05 23.21,7.95 30.23,8.16 C31.23,8.18 32.36,9.55 33.12,10.54 C35.84,14.11 38.44,17.78 41.29,21.7z"/>
  <path fill="currentColor" d="M107.59,39.59 C99.98,50.05 92.59,60.23 84.84,70.9 C81.25,65.99 77.85,61.59 74.81,56.94 C74.17,55.96 74.38,53.73 75.09,52.68 C79.2,46.66 83.49,40.74 87.95,34.97 C88.78,33.88 90.61,33.04 92.01,33 C98.46,32.79 104.93,32.91 112.32,32.91 C110.57,35.4 109.19,37.35 107.59,39.59z"/>
  <path fill="currentColor" d="M85.95,83.22 C94.22,94.6 102.3,105.72 110.97,117.65 C103.19,117.65 96.32,117.77 89.46,117.54 C88.29,117.5 86.9,116.2 86.07,115.12 C82.35,110.25 78.88,105.17 75.13,100.31 C73.53,98.24 73.56,96.74 75.22,94.7 C78.03,91.22 80.46,87.43 83.2,83.89 C83.68,83.28 84.88,83.24 85.95,83.22z"/>
</svg>
